<svg xmlns="http://www.w3.org/2000/svg" width="181" height="190" viewBox="0 0 181 190"><g><g><g><g><path fill="#e3e3e3" d="M35.568 176.47h112.98V80.257H35.569z"/></g><g><g><g><path fill="none" stroke="#5f6368" stroke-dasharray="4 4" stroke-miterlimit="20" stroke-width=".75" d="M97.71 107.857c16.9-19.687 26.913-53.548.237-74.651-14.4-11.393-28.793-.059-32.727 6.998-4.344 7.794 3.314 11.817 8.244 5.843 8.55-10.358 4.896-26.664-10.872-34.447-14.952-7.38-29.916 1.98-29.916 1.98v0"/></g><g><g><path fill="#263238" d="M24.446 17.15c-1.858-4.028 5.878-9.095 8.306-3.832"/></g><g><g><path fill="#e6eaef" d="M33.343 6.637c-1.305-1.316-4.164-.618-6.396 2.333-2.233 2.951-3.093 7.079-3.093 7.079s4.141-.82 7.11-3.03c2.968-2.207 3.69-5.061 2.38-6.382z"/></g><g><g><path fill="#263238" d="M23.854 16.049c1.4-1.272 2.746-2.598 4.094-3.92 1.333-1.339 2.67-2.673 3.953-4.062-1.4 1.271-2.744 2.598-4.094 3.92-1.332 1.339-2.67 2.673-3.953 4.062z"/></g><g><path fill="#263238" d="M29.541 7.91c-.236.552-.399 1.123-.566 1.692-.145.575-.297 1.149-.373 1.743.237-.55.398-1.12.566-1.69.145-.576.296-1.15.373-1.744z"/></g><g><path fill="#263238" d="M27.227 12.704c.627-.026 1.241-.127 1.856-.223.611-.118 1.224-.23 1.823-.42-.628.025-1.242.127-1.856.223-.612.118-1.224.232-1.823.42z"/></g><g><path fill="#263238" d="M26.116 12.31c-.125.28-.174.57-.229.862-.032.295-.07.588-.032.892.126-.28.175-.572.23-.863.031-.294.07-.587.031-.892z"/></g></g></g><g><g><path fill="#e6eaef" d="M38.239 17.069c.154 1.845-2.233 3.569-5.926 3.351-3.694-.216-7.392-2.24-7.392-2.24s3.31-2.618 6.917-3.445c3.607-.825 6.246.478 6.401 2.334z"/></g><g><g><path fill="#263238" d="M24.921 18.18c1.875-.24 3.757-.402 5.638-.572 1.884-.145 3.767-.297 5.655-.371-1.875.24-3.757.402-5.638.571-1.884.146-3.766.297-5.655.372z"/></g><g><path fill="#263238" d="M34.802 19.134c-.573-.178-1.111-.425-1.653-.667-.532-.263-1.068-.52-1.57-.848.573.177 1.113.425 1.654.667.532.263 1.066.521 1.57.848z"/></g><g><path fill="#263238" d="M29.654 17.784c.426-.46.903-.862 1.374-1.267.487-.39.969-.782 1.502-1.115-.426.461-.902.862-1.375 1.269-.486.388-.969.78-1.501 1.113z"/></g><g><path fill="#263238" d="M29.233 18.886c-.294-.088-.548-.24-.805-.386-.245-.166-.492-.328-.7-.555.295.086.549.238.806.386.245.166.493.328.7.555z"/></g></g></g><g><path fill="#455a64" d="M24.446 17.15a1.6 1.6 0 1 0-1.339-2.906 1.6 1.6 0 0 0 1.339 2.907z"/></g><g><path fill="#455a64" d="M25.788 20.057a1.6 1.6 0 1 0-1.342-2.906 1.6 1.6 0 0 0 1.342 2.906z"/></g></g></g></g><g><path fill="#eee" d="M3.092 187.99c-2.82-.353-3.858-.778-2.5-1.287 9.438-3.544 51.761-3.593 72.292-3.666 20.555-.07 41.118-.041 61.666.212 7.619.094 15.238.228 22.857.394 3.808.082 7.617.173 11.426.27 1.905.049 10.505-.183 11.949 2.065.694 1.082-6.232 2.365-6.888 2.47-3.756.599-7.534.591-11.313.734-4.05.153-8.104.247-12.156.343-28.474.678-57.497.223-86.039.099-19.395-.087-42.522.716-61.293-1.634"/></g><g><path fill="#5d7183" d="M44.752 79.734H36.24c-.69 0-1.644 1.044-.577 1.044h8.51c.691 0 1.644-1.044.578-1.044"/></g><g><path fill="#eee" d="M35.568 80.302L13.153 95.051v83.384l22.415-.64V80.303"/></g><g><path fill="#5d7183" d="M35.048 79.96L12.562 94.658c-.896.587.413 1.095 1.04.685l22.486-14.698c.896-.587-.414-1.095-1.04-.685m1.32 11.855v-8.956c0-.804-1.6-.55-1.6.131v8.957c0 .803 1.6.55 1.6-.133"/></g><g><path fill="#eee" d="M148.548 80.302l22.414 14.749v83.384l-22.414-.64V80.303"/></g><g><path fill="#5d7183" d="M171.576 94.605l-18.224-11.99-3.593-2.365c-.838-.552-1.511-.536-2.55-.552-3.064-.047-6.132-.001-9.197-.001H43.677c-.888 0-1.23 1.117-.152 1.117 6.677 0 96.41-.06 103.088 0 .344.002.496.082 1.144.03.437-.035.453.032.217-.07.103.044.214.131.303.2 1.012.769 2.15 1.413 3.211 2.113l11.024 7.253 7.838 5.158c.56.367 1.96-.409 1.226-.893"/></g><g><path fill="#5d7183" d="M149.35 92.143v-9.611c0-.805-1.602-.551-1.602.13v9.613c0 .803 1.601.55 1.601-.133"/></g><g><path fill="#e6eaef" d="M170.963 95.034L13.082 95l-.018 86.714a3.306 3.306 0 0 0 3.305 3.307l151.29.03a3.286 3.286 0 0 0 3.286-3.285l.018-86.733"/></g><g><path fill="#f2f5f9" d="M148.04 95.028l-134.959-.027-.014 67.624c-.001 8.723 7.068 15.796 15.79 15.798l89.804.018c24.34.005 44.077-19.723 44.081-44.063l.006-24.636c0-8.125-6.584-14.713-14.707-14.714"/></g><g><path fill="#5d7183" d="M171.036 94.464l-15.673-.003-83.378-.017-39.395-.008-12.989-.003c-2.035 0-4.143-.16-6.174 0-.09.006-.183 0-.273 0-.304 0-.875.265-.875.632l-.005 27.484-.009 45.641-.003 12.627c0 1.8.319 3.546 2.192 4.398.874.398 1.77.376 2.696.376l24.442.004 44.447.01 46.615.009 30.97.006c1.902 0 4.527.388 6.22-.663 2.775-1.724 1.903-6.424 1.903-9.194l.009-41.84.008-36.942V94.97c0-.816-1.602-.572-1.603.127l-.005 26.718-.01 45.284-.002 13.233c0 1.671.116 3.732-2.076 4.11-.493.086-1.015.04-1.512.04l-24.773-.005-43.98-.008-45.886-.01-31.003-.007c-1.59 0-4.357.507-5.79-.448-1.425-.95-1.259-2.476-1.259-3.925l.001-5.35.009-41.816.006-36.019v-1.956l-.874.633 15.673.002 37.647.009 45.731.009 39.395.007 12.989.004c2.035 0 4.144.16 6.174 0 .09-.007.183 0 .273 0 .897 0 1.222-1.138.147-1.138"/></g></g><g><path fill="#5d7183" d="M78.61 149.647c2.892-2.923 7.342-4.42 11.37-4.525 4.15-.108 9.007 1.13 12.147 4.022.611.563-.348 1.063-.832.618-2.806-2.586-7.08-3.705-10.793-3.683a16.57 16.57 0 0 0-7.992 2.133c-.702.394-1.373.842-2.007 1.34-.208.163-.411.333-.61.509-.054.048-.324.31-.16.146-.419.422-1.578-.1-1.124-.56"/></g><g><path fill="#5d7183" d="M80.242 134.485c.066-1.24 1.122-2.476 2.444-1.712.748.433 1.117 1.204 1.162 2.042.013.23 1.25.022 1.23-.33-.196-3.653-5.886-3.026-6.067.33-.01.192 1.21.043 1.23-.33m16.48.125c.056-1.013.725-1.985 1.852-1.894 1.004.084 1.685 1.022 1.736 1.973.035.673 1.282.507 1.25-.079-.204-3.798-5.888-3.633-6.088.079-.036.667 1.22.515 1.25-.079"/></g></g></g></svg>