<svg xmlns="http://www.w3.org/2000/svg" width="17" height="16" viewBox="0 0 17 16">
    <g>
        <g>
            <path fill="currentColor"
                d="M8.783 14.529l-.761-.672a83.097 83.097 0 0 1-3.25-3.039c-.855-.853-1.536-1.615-2.044-2.286-.508-.672-.864-1.28-1.068-1.824a4.667 4.667 0 0 1-.306-1.651c0-1.09.374-2 1.123-2.731.75-.732 1.675-1.098 2.777-1.098.706 0 1.36.163 1.96.49.6.326 1.123.798 1.57 1.415.52-.653 1.07-1.134 1.652-1.443a3.946 3.946 0 0 1 1.876-.462c1.102 0 2.028.366 2.777 1.098.75.731 1.124 1.642 1.124 2.73 0 .557-.102 1.107-.307 1.652-.204.544-.56 1.152-1.068 1.824-.507.67-1.188 1.433-2.043 2.286a83.09 83.09 0 0 1-3.25 3.04z" />
            <path fill="none" stroke="#0f0f0f" stroke-miterlimit="20" stroke-width=".5"
                d="M8.783 14.529v0l-.761-.672a83.097 83.097 0 0 1-3.25-3.039c-.855-.853-1.536-1.615-2.044-2.286-.508-.672-.864-1.28-1.068-1.824a4.667 4.667 0 0 1-.306-1.651c0-1.09.374-2 1.123-2.731.75-.732 1.675-1.098 2.777-1.098.706 0 1.36.163 1.96.49.6.326 1.123.798 1.57 1.415.52-.653 1.07-1.134 1.652-1.443a3.946 3.946 0 0 1 1.876-.462c1.102 0 2.028.366 2.777 1.098.75.731 1.124 1.642 1.124 2.73 0 .557-.102 1.107-.307 1.652-.204.544-.56 1.152-1.068 1.824-.507.67-1.188 1.433-2.043 2.286a83.09 83.09 0 0 1-3.25 3.04z" />
        </g>
    </g>
</svg>