<svg xmlns="http://www.w3.org/2000/svg" xmlns:xlink="http://www.w3.org/1999/xlink" viewBox="0 0 46 53">
  <defs>
    <filter id="Polygon_3" x="0" y="0" width="46" height="53" filterUnits="userSpaceOnUse">
      <feOffset dx="4" input="SourceAlpha" />
      <feGaussianBlur result="blur" />
      <feFlood flood-color="#141414" flood-opacity="0.102" result="color" />
      <feComposite operator="out" in="SourceGraphic" in2="blur" />
      <feComposite operator="in" in="color" />
      <feComposite operator="in" in2="SourceGraphic" />
    </filter>
  </defs>
  <g data-type="innerShadowGroup">
    <g id="Polygon_3-2" data-name="Polygon 3" transform="translate(0 53) rotate(-90)" fill="#fff">
      <path
        d="M 33.97016906738281 45.90000152587891 L 19.02983093261719 45.90000152587891 C 15.50034999847412 45.90000152587891 12.21331977844238 44.00014877319336 10.4514799118042 40.94186019897461 L 2.96235990524292 27.94186973571777 C 1.206300020217896 24.89361000061035 1.206300020217896 21.10638999938965 2.96235990524292 18.05813026428223 L 10.45149040222168 5.058129787445068 C 12.21333026885986 1.999840021133423 15.50034999847412 0.1000000014901161 19.02983093261719 0.1000000014901161 L 33.97018051147461 0.1000000014901161 C 37.49964904785156 0.1000000014901161 40.78667068481445 1.999840021133423 42.54851913452148 5.058129787445068 L 50.03765106201172 18.05813026428223 C 51.79370880126953 21.10638999938965 51.79370880126953 24.89361000061035 50.03765106201172 27.94186973571777 L 42.54851913452148 40.94186019897461 C 40.78667831420898 44.00014877319336 37.49964904785156 45.90000152587891 33.97016906738281 45.90000152587891 Z"
        stroke="none" />
      <path
        d="M 19.02983093261719 0.2000007629394531 C 15.5359992980957 0.2000007629394531 12.28218078613281 2.080650329589844 10.53813934326172 5.108051300048828 L 3.048999786376953 18.1080493927002 C 1.310680389404297 21.12550926208496 1.310680389404297 24.87449073791504 3.048999786376953 27.8919506072998 L 10.53813171386719 40.89194107055664 C 12.28218078613281 43.91934967041016 15.5359992980957 45.79999923706055 19.02981948852539 45.79999160766602 L 33.97019958496094 45.79999160766602 C 37.46401214599609 45.79999160766602 40.71783065795898 43.91933822631836 42.46186828613281 40.89194107055664 L 49.95100021362305 27.8919506072998 C 51.6893196105957 24.87449073791504 51.6893196105957 21.12550926208496 49.95100021362305 18.1080493927002 L 42.46186828613281 5.108051300048828 C 40.71781921386719 2.080650329589844 37.4640007019043 0.2000007629394531 33.97018051147461 0.2000007629394531 L 19.02983093261719 0.2000007629394531 M 19.02983093261719 0 L 33.97018051147461 0 C 37.54621887207031 0 40.85007858276367 1.909568786621094 42.63516998291016 5.008209228515625 L 50.12429809570312 18.00820922851562 C 51.9043083190918 21.09804916381836 51.9043083190918 24.90195083618164 50.12429809570312 27.99179077148438 L 42.63516998291016 40.99177932739258 C 40.85018920898438 44.09024047851562 37.54599761962891 45.9999885559082 33.97019958496094 45.9999885559082 C 33.96997833251953 45.9999885559082 33.97039031982422 45.9999885559082 33.97016906738281 45.9999885559082 L 19.02981948852539 45.9999885559082 C 15.45378112792969 46 12.14992141723633 44.09043121337891 10.36483001708984 40.99177932739258 L 2.875701904296875 27.99179077148438 C 1.095691680908203 24.90195083618164 1.095691680908203 21.09804916381836 2.875701904296875 18.00820922851562 L 10.36484146118164 5.008209228515625 C 12.14992141723633 1.909568786621094 15.45378112792969 0 19.02983093261719 0 Z"
        stroke="none" />
    </g>
    <g transform="matrix(1, 0, 0, 1, 0, 0)" filter="url(#Polygon_3)">
      <g id="Polygon_3-3" data-name="Polygon 3" transform="translate(0 53) rotate(-90)" fill="#fff">
        <path
          d="M 33.97016906738281 45.90000152587891 L 19.02983093261719 45.90000152587891 C 15.50034999847412 45.90000152587891 12.21331977844238 44.00014877319336 10.4514799118042 40.94186019897461 L 2.96235990524292 27.94186973571777 C 1.206300020217896 24.89361000061035 1.206300020217896 21.10638999938965 2.96235990524292 18.05813026428223 L 10.45149040222168 5.058129787445068 C 12.21333026885986 1.999840021133423 15.50034999847412 0.1000000014901161 19.02983093261719 0.1000000014901161 L 33.97018051147461 0.1000000014901161 C 37.49964904785156 0.1000000014901161 40.78667068481445 1.999840021133423 42.54851913452148 5.058129787445068 L 50.03765106201172 18.05813026428223 C 51.79370880126953 21.10638999938965 51.79370880126953 24.89361000061035 50.03765106201172 27.94186973571777 L 42.54851913452148 40.94186019897461 C 40.78667831420898 44.00014877319336 37.49964904785156 45.90000152587891 33.97016906738281 45.90000152587891 Z"
          stroke="none" />
        <path
          d="M 19.02983093261719 0.2000007629394531 C 15.5359992980957 0.2000007629394531 12.28218078613281 2.080650329589844 10.53813934326172 5.108051300048828 L 3.048999786376953 18.1080493927002 C 1.310680389404297 21.12550926208496 1.310680389404297 24.87449073791504 3.048999786376953 27.8919506072998 L 10.53813171386719 40.89194107055664 C 12.28218078613281 43.91934967041016 15.5359992980957 45.79999923706055 19.02981948852539 45.79999160766602 L 33.97019958496094 45.79999160766602 C 37.46401214599609 45.79999160766602 40.71783065795898 43.91933822631836 42.46186828613281 40.89194107055664 L 49.95100021362305 27.8919506072998 C 51.6893196105957 24.87449073791504 51.6893196105957 21.12550926208496 49.95100021362305 18.1080493927002 L 42.46186828613281 5.108051300048828 C 40.71781921386719 2.080650329589844 37.4640007019043 0.2000007629394531 33.97018051147461 0.2000007629394531 L 19.02983093261719 0.2000007629394531 M 19.02983093261719 0 L 33.97018051147461 0 C 37.54621887207031 0 40.85007858276367 1.909568786621094 42.63516998291016 5.008209228515625 L 50.12429809570312 18.00820922851562 C 51.9043083190918 21.09804916381836 51.9043083190918 24.90195083618164 50.12429809570312 27.99179077148438 L 42.63516998291016 40.99177932739258 C 40.85018920898438 44.09024047851562 37.54599761962891 45.9999885559082 33.97019958496094 45.9999885559082 C 33.96997833251953 45.9999885559082 33.97039031982422 45.9999885559082 33.97016906738281 45.9999885559082 L 19.02981948852539 45.9999885559082 C 15.45378112792969 46 12.14992141723633 44.09043121337891 10.36483001708984 40.99177932739258 L 2.875701904296875 27.99179077148438 C 1.095691680908203 24.90195083618164 1.095691680908203 21.09804916381836 2.875701904296875 18.00820922851562 L 10.36484146118164 5.008209228515625 C 12.14992141723633 1.909568786621094 15.45378112792969 0 19.02983093261719 0 Z"
          stroke="none" />
      </g>
    </g>
    <g id="Polygon_3-4" data-name="Polygon 3" transform="translate(0 53) rotate(-90)" fill="none">
      <path
        d="M 33.97016906738281 45.90000152587891 L 19.02983093261719 45.90000152587891 C 15.50034999847412 45.90000152587891 12.21331977844238 44.00014877319336 10.4514799118042 40.94186019897461 L 2.96235990524292 27.94186973571777 C 1.206300020217896 24.89361000061035 1.206300020217896 21.10638999938965 2.96235990524292 18.05813026428223 L 10.45149040222168 5.058129787445068 C 12.21333026885986 1.999840021133423 15.50034999847412 0.1000000014901161 19.02983093261719 0.1000000014901161 L 33.97018051147461 0.1000000014901161 C 37.49964904785156 0.1000000014901161 40.78667068481445 1.999840021133423 42.54851913452148 5.058129787445068 L 50.03765106201172 18.05813026428223 C 51.79370880126953 21.10638999938965 51.79370880126953 24.89361000061035 50.03765106201172 27.94186973571777 L 42.54851913452148 40.94186019897461 C 40.78667831420898 44.00014877319336 37.49964904785156 45.90000152587891 33.97016906738281 45.90000152587891 Z"
        stroke="none" />
      <path d="M 19.02983093261719 0.2000007629394531
         C 15.5359992980957 0.2000007629394531 12.28218078613281 2.080650329589844 10.53813934326172 5.108051300048828 
         L 3.048999786376953 18.1080493927002
         C 1.310680389404297 21.12550926208496 1.310680389404297 24.87449073791504 3.048999786376953 27.8919506072998 
         L 10.53813171386719 40.89194107055664 
         C 12.28218078613281 43.91934967041016 15.5359992980957 45.79999923706055 19.02981948852539 45.79999160766602 
         L 33.97019958496094 45.79999160766602 
         C 37.46401214599609 45.79999160766602 40.71783065795898 43.91933822631836 42.46186828613281 40.89194107055664 
         L 49.95100021362305 27.8919506072998 
         C 51.6893196105957 24.87449073791504 51.6893196105957 21.12550926208496 49.95100021362305 18.1080493927002 
         L 42.46186828613281 5.108051300048828 
         C 40.71781921386719 2.080650329589844 37.4640007019043 0.2000007629394531 33.97018051147461 0.2000007629394531 
         L 19.02983093261719 0.2000007629394531 
         Z" stroke-width="0.8px" stroke="#343232" />
    </g>
  </g>
</svg>